<svg xmlns="http://www.w3.org/2000/svg" width="766.404" height="783.2" viewBox="0 0 766.404 783.2"><g transform="translate(-290 -5782)"><path d="M28.2,36.009H55.279A28.132,28.132,0,0,0,28.2,0a27.763,27.763,0,0,0-12.1,2.743V23.068H.492A24.458,24.458,0,0,0,0,28.2,28.2,28.2,0,0,0,28.2,56.4Z" transform="translate(1000 6158)"/><path d="M40.1,39.2H80.2a40.1,40.1,0,1,0-40.1,41Z" transform="translate(290 6485)"/><path d="M18.8,0a18.8,18.8,0,1,0,18.8,18.8A18.772,18.772,0,0,0,18.8,0Zm0,27.2A8.394,8.394,0,1,1,27.2,18.8,8.385,8.385,0,0,1,18.8,27.2Z" transform="translate(777 5782)"/></g></svg>