<svg xmlns="http://www.w3.org/2000/svg" width="1404.404" height="1016.2" viewBox="0 0 1404.404 1016.2"><defs><style>.a{fill:#dbd200;}</style></defs><g transform="translate(-397 -4494)"><path class="a" d="M28.2,36.009H55.279A28.132,28.132,0,0,0,28.2,0a27.763,27.763,0,0,0-12.1,2.743V23.068H.492A24.458,24.458,0,0,0,0,28.2,28.2,28.2,0,0,0,28.2,56.4Z" transform="translate(397 4494)"/><path class="a" d="M28.2,36.009H55.279A28.132,28.132,0,0,0,28.2,0a27.763,27.763,0,0,0-12.1,2.743V23.068H.492A24.458,24.458,0,0,0,0,28.2,28.2,28.2,0,0,0,28.2,56.4Z" transform="translate(1745 5354)"/><path class="a" d="M19.438,37.136H57.009A29.012,29.012,0,0,0,29.085,0c-.8,0-1.6.073-2.321.073V23.718H.508A26.4,26.4,0,0,0,0,29.085,29,29,0,0,0,19.438,56.5Z" transform="translate(1442 4823)"/><path class="a" d="M40.1,39.2H80.2a40.1,40.1,0,1,0-40.1,41Z" transform="translate(1028 5430)"/></g></svg>