<svg xmlns="http://www.w3.org/2000/svg" width="796.626" height="1227.501" viewBox="0 0 796.626 1227.501"><g transform="translate(-330 -2363)"><path d="M28.2,36.009H55.279A28.132,28.132,0,0,0,28.2,0a27.763,27.763,0,0,0-12.1,2.743V23.068H.492A24.458,24.458,0,0,0,0,28.2,28.2,28.2,0,0,0,28.2,56.4Z" transform="translate(591 2470)"/><path d="M45.7,40.1H80.1A39.947,39.947,0,0,0,40.1,0,39.476,39.476,0,0,0,22.9,3.9V32.8H.7A34.776,34.776,0,0,0,0,40.1,40.1,40.1,0,0,0,40.1,80.2a34.348,34.348,0,0,0,5.6-.4V40.1Z" transform="matrix(0.899, -0.438, 0.438, 0.899, 1019.475, 3240.615)"/><path d="M19.438,37.136H57.009A29.012,29.012,0,0,0,29.085,0c-.8,0-1.6.073-2.321.073V23.718H.508A26.4,26.4,0,0,0,0,29.085,29,29,0,0,0,19.438,56.5Z" transform="translate(618 3534)"/><path d="M27.292,0A27.292,27.292,0,1,0,54.584,27.292,27.246,27.246,0,0,0,27.292,0Zm0,39.475A12.183,12.183,0,1,1,39.475,27.292,12.171,12.171,0,0,1,27.292,39.475Z" transform="translate(330 2670)"/><path d="M23.593,0A23.593,23.593,0,1,0,47.186,23.593,23.553,23.553,0,0,0,23.593,0Zm0,34.124A10.531,10.531,0,1,1,34.124,23.593,10.521,10.521,0,0,1,23.593,34.124Z" transform="translate(1048 2363)"/></g></svg>