<svg xmlns="http://www.w3.org/2000/svg" width="772.15" height="887.15" viewBox="0 0 772.15 887.15"><defs><style>.a{fill:red;}</style></defs><g transform="translate(-148 -1174)"><path class="a" d="M45.7,40.1H80.1A39.947,39.947,0,0,0,40.1,0,39.476,39.476,0,0,0,22.9,3.9V32.8H.7A34.776,34.776,0,0,0,0,40.1,40.1,40.1,0,0,0,40.1,80.2a34.348,34.348,0,0,0,5.6-.4V40.1Z" transform="translate(839.95 2061.15) rotate(-90)"/><path class="a" d="M19.438,37.136H57.009A29.012,29.012,0,0,0,29.085,0c-.8,0-1.6.073-2.321.073V23.718H.508A26.4,26.4,0,0,0,0,29.085,29,29,0,0,0,19.438,56.5Z" transform="translate(148 1174)"/></g></svg>