<svg xmlns="http://www.w3.org/2000/svg" width="1128.466" height="913.083" viewBox="0 0 1128.466 913.083"><defs><style>.a{fill:#fff;}</style></defs><g transform="translate(-507 -1202.502)"><path class="a" d="M37.233,47.539H72.98A37.14,37.14,0,0,0,37.233,0a36.654,36.654,0,0,0-15.97,3.621V30.455H.65A32.29,32.29,0,0,0,0,37.233,37.229,37.229,0,0,0,37.233,74.466Z" transform="translate(1561 1701)"/><path class="a" d="M45.7,40.1H80.1A39.947,39.947,0,0,0,40.1,0,39.476,39.476,0,0,0,22.9,3.9V32.8H.7A34.776,34.776,0,0,0,0,40.1,40.1,40.1,0,0,0,40.1,80.2a34.348,34.348,0,0,0,5.6-.4V40.1Z" transform="matrix(0.899, -0.438, 0.438, 0.899, 1407.475, 1237.615)"/><path d="M40.1,39.2H80.2a40.1,40.1,0,1,0-40.1,41Z" transform="translate(895 1550)"/><path d="M27.292,0A27.292,27.292,0,1,0,54.584,27.292,27.246,27.246,0,0,0,27.292,0Zm0,39.475A12.183,12.183,0,1,1,39.475,27.292,12.171,12.171,0,0,1,27.292,39.475Z" transform="translate(1195 2061)"/><path d="M17.55,0A17.55,17.55,0,1,0,35.1,17.55,17.52,17.52,0,0,0,17.55,0Zm0,25.384a7.834,7.834,0,1,1,7.834-7.834A7.826,7.826,0,0,1,17.55,25.384Z" transform="translate(507 1225)"/></g></svg>