<svg xmlns="http://www.w3.org/2000/svg" width="725.726" height="774.698" viewBox="0 0 725.726 774.698"><defs><style>.a{fill:#00c4ff;}</style></defs><g transform="translate(-69.475 -2647)"><path class="a" d="M45.7,40.1H80.1A39.947,39.947,0,0,0,40.1,0,39.476,39.476,0,0,0,22.9,3.9V32.8H.7A34.776,34.776,0,0,0,0,40.1,40.1,40.1,0,0,0,40.1,80.2a34.348,34.348,0,0,0,5.6-.4V40.1Z" transform="matrix(0.899, -0.438, 0.438, 0.899, 69.475, 3349.615)"/><path class="a" d="M40.1,39.2H80.2a40.1,40.1,0,1,0-40.1,41Z" transform="translate(715 2647)"/></g></svg>